<svg width="400" height="400" viewBox="0 0 400 400" fill="none" xmlns="http://www.w3.org/2000/svg">
  <g opacity="0.8">
    <!-- Brain outline -->
    <path d="M200 50C120 50 60 120 60 200C60 280 120 350 200 350C280 350 340 280 340 200C340 120 280 50 200 50Z" stroke="#6366f1" stroke-width="4" fill="none" />
    
    <!-- Left hemisphere connections -->
    <path d="M120 150C140 130 160 120 180 120" stroke="#6366f1" stroke-width="2" />
    <path d="M120 180C150 160 170 150 190 150" stroke="#6366f1" stroke-width="2" />
    <path d="M120 210C150 190 180 180 200 180" stroke="#6366f1" stroke-width="2" />
    <path d="M120 240C150 220 180 210 200 210" stroke="#6366f1" stroke-width="2" />
    <path d="M120 270C140 250 160 240 180 240" stroke="#6366f1" stroke-width="2" />
    
    <!-- Right hemisphere connections -->
    <path d="M280 150C260 130 240 120 220 120" stroke="#8b5cf6" stroke-width="2" />
    <path d="M280 180C250 160 230 150 210 150" stroke="#8b5cf6" stroke-width="2" />
    <path d="M280 210C250 190 220 180 200 180" stroke="#8b5cf6" stroke-width="2" />
    <path d="M280 240C250 220 220 210 200 210" stroke="#8b5cf6" stroke-width="2" />
    <path d="M280 270C260 250 240 240 220 240" stroke="#8b5cf6" stroke-width="2" />
    
    <!-- Neural nodes -->
    <circle cx="120" cy="150" r="6" fill="#6366f1" />
    <circle cx="120" cy="180" r="6" fill="#6366f1" />
    <circle cx="120" cy="210" r="6" fill="#6366f1" />
    <circle cx="120" cy="240" r="6" fill="#6366f1" />
    <circle cx="120" cy="270" r="6" fill="#6366f1" />
    
    <circle cx="180" cy="120" r="6" fill="#6366f1" />
    <circle cx="190" cy="150" r="6" fill="#6366f1" />
    <circle cx="200" cy="180" r="6" fill="#10b981" />
    <circle cx="200" cy="210" r="6" fill="#10b981" />
    <circle cx="180" cy="240" r="6" fill="#6366f1" />
    
    <circle cx="280" cy="150" r="6" fill="#8b5cf6" />
    <circle cx="280" cy="180" r="6" fill="#8b5cf6" />
    <circle cx="280" cy="210" r="6" fill="#8b5cf6" />
    <circle cx="280" cy="240" r="6" fill="#8b5cf6" />
    <circle cx="280" cy="270" r="6" fill="#8b5cf6" />
    
    <circle cx="220" cy="120" r="6" fill="#8b5cf6" />
    <circle cx="210" cy="150" r="6" fill="#8b5cf6" />
    <circle cx="220" cy="240" r="6" fill="#8b5cf6" />
    
    <!-- Central connections -->
    <path d="M180 120C190 130 210 130 220 120" stroke="#10b981" stroke-width="2" />
    <path d="M190 150C195 160 205 160 210 150" stroke="#10b981" stroke-width="2" />
    <path d="M180 240C190 230 210 230 220 240" stroke="#10b981" stroke-width="2" />
    
    <!-- Animated pulse circles -->
    <circle cx="200" cy="180" r="15" fill="#10b981" opacity="0.2">
      <animate attributeName="r" values="15;25;15" dur="3s" repeatCount="indefinite" />
      <animate attributeName="opacity" values="0.2;0.4;0.2" dur="3s" repeatCount="indefinite" />
    </circle>
    
    <circle cx="200" cy="210" r="15" fill="#10b981" opacity="0.2">
      <animate attributeName="r" values="15;25;15" dur="3s" repeatCount="indefinite" begin="1s" />
      <animate attributeName="opacity" values="0.2;0.4;0.2" dur="3s" repeatCount="indefinite" begin="1s" />
    </circle>
    
    <!-- Animated data flow -->
    <circle cx="120" cy="150" r="3" fill="#ffffff">
      <animate attributeName="cx" values="120;180" dur="2s" repeatCount="indefinite" />
      <animate attributeName="cy" values="150;120" dur="2s" repeatCount="indefinite" />
      <animate attributeName="opacity" values="1;0" dur="2s" repeatCount="indefinite" />
    </circle>
    
    <circle cx="280" cy="150" r="3" fill="#ffffff">
      <animate attributeName="cx" values="280;220" dur="2s" repeatCount="indefinite" />
      <animate attributeName="cy" values="150;120" dur="2s" repeatCount="indefinite" />
      <animate attributeName="opacity" values="1;0" dur="2s" repeatCount="indefinite" />
    </circle>
    
    <circle cx="120" cy="210" r="3" fill="#ffffff">
      <animate attributeName="cx" values="120;200" dur="2s" repeatCount="indefinite" begin="0.5s" />
      <animate attributeName="cy" values="210;210" dur="2s" repeatCount="indefinite" begin="0.5s" />
      <animate attributeName="opacity" values="1;0" dur="2s" repeatCount="indefinite" begin="0.5s" />
    </circle>
    
    <circle cx="280" cy="210" r="3" fill="#ffffff">
      <animate attributeName="cx" values="280;200" dur="2s" repeatCount="indefinite" begin="1s" />
      <animate attributeName="cy" values="210;210" dur="2s" repeatCount="indefinite" begin="1s" />
      <animate attributeName="opacity" values="1;0" dur="2s" repeatCount="indefinite" begin="1s" />
    </circle>
  </g>
</svg> 