<svg width="200" height="200" viewBox="0 0 200 200" fill="none" xmlns="http://www.w3.org/2000/svg">
  <g opacity="0.9">
    <!-- Background circle -->
    <circle cx="100" cy="100" r="80" fill="url(#paint0_radial)" />
    
    <!-- Brain outline -->
    <path d="M100 40C70 40 50 60 50 90C50 110 60 120 70 130C80 140 90 150 100 150C110 150 120 140 130 130C140 120 150 110 150 90C150 60 130 40 100 40Z" stroke="#6366f1" stroke-width="2" fill="none" />
    
    <!-- Brain folds -->
    <path d="M70 90C80 80 90 85 100 75C110 85 120 80 130 90" stroke="#6366f1" stroke-width="2" fill="none" />
    <path d="M70 110C80 100 90 105 100 95C110 105 120 100 130 110" stroke="#6366f1" stroke-width="2" fill="none" />
    <path d="M80 130C90 120 95 125 100 115C105 125 110 120 120 130" stroke="#6366f1" stroke-width="2" fill="none" />
    
    <!-- Neural nodes -->
    <circle cx="70" cy="90" r="4" fill="#6366f1">
      <animate attributeName="opacity" values="1;0.5;1" dur="2s" repeatCount="indefinite" />
    </circle>
    <circle cx="100" cy="75" r="4" fill="#6366f1">
      <animate attributeName="opacity" values="1;0.5;1" dur="2s" repeatCount="indefinite" begin="0.2s" />
    </circle>
    <circle cx="130" cy="90" r="4" fill="#6366f1">
      <animate attributeName="opacity" values="1;0.5;1" dur="2s" repeatCount="indefinite" begin="0.4s" />
    </circle>
    <circle cx="70" cy="110" r="4" fill="#6366f1">
      <animate attributeName="opacity" values="1;0.5;1" dur="2s" repeatCount="indefinite" begin="0.6s" />
    </circle>
    <circle cx="100" cy="95" r="4" fill="#6366f1">
      <animate attributeName="opacity" values="1;0.5;1" dur="2s" repeatCount="indefinite" begin="0.8s" />
    </circle>
    <circle cx="130" cy="110" r="4" fill="#6366f1">
      <animate attributeName="opacity" values="1;0.5;1" dur="2s" repeatCount="indefinite" begin="1s" />
    </circle>
    <circle cx="80" cy="130" r="4" fill="#6366f1">
      <animate attributeName="opacity" values="1;0.5;1" dur="2s" repeatCount="indefinite" begin="1.2s" />
    </circle>
    <circle cx="100" cy="115" r="4" fill="#6366f1">
      <animate attributeName="opacity" values="1;0.5;1" dur="2s" repeatCount="indefinite" begin="1.4s" />
    </circle>
    <circle cx="120" cy="130" r="4" fill="#6366f1">
      <animate attributeName="opacity" values="1;0.5;1" dur="2s" repeatCount="indefinite" begin="1.6s" />
    </circle>
    
    <!-- Neural connections -->
    <path d="M70 90L100 75" stroke="#6366f1" stroke-width="1" stroke-dasharray="2 2">
      <animate attributeName="stroke-dashoffset" values="0;4" dur="1s" repeatCount="indefinite" />
    </path>
    <path d="M100 75L130 90" stroke="#6366f1" stroke-width="1" stroke-dasharray="2 2">
      <animate attributeName="stroke-dashoffset" values="0;4" dur="1s" repeatCount="indefinite" />
    </path>
    <path d="M70 90L70 110" stroke="#6366f1" stroke-width="1" stroke-dasharray="2 2">
      <animate attributeName="stroke-dashoffset" values="0;4" dur="1s" repeatCount="indefinite" />
    </path>
    <path d="M100 75L100 95" stroke="#6366f1" stroke-width="1" stroke-dasharray="2 2">
      <animate attributeName="stroke-dashoffset" values="0;4" dur="1s" repeatCount="indefinite" />
    </path>
    <path d="M130 90L130 110" stroke="#6366f1" stroke-width="1" stroke-dasharray="2 2">
      <animate attributeName="stroke-dashoffset" values="0;4" dur="1s" repeatCount="indefinite" />
    </path>
    <path d="M70 110L100 95" stroke="#6366f1" stroke-width="1" stroke-dasharray="2 2">
      <animate attributeName="stroke-dashoffset" values="0;4" dur="1s" repeatCount="indefinite" />
    </path>
    <path d="M100 95L130 110" stroke="#6366f1" stroke-width="1" stroke-dasharray="2 2">
      <animate attributeName="stroke-dashoffset" values="0;4" dur="1s" repeatCount="indefinite" />
    </path>
    <path d="M70 110L80 130" stroke="#6366f1" stroke-width="1" stroke-dasharray="2 2">
      <animate attributeName="stroke-dashoffset" values="0;4" dur="1s" repeatCount="indefinite" />
    </path>
    <path d="M100 95L100 115" stroke="#6366f1" stroke-width="1" stroke-dasharray="2 2">
      <animate attributeName="stroke-dashoffset" values="0;4" dur="1s" repeatCount="indefinite" />
    </path>
    <path d="M130 110L120 130" stroke="#6366f1" stroke-width="1" stroke-dasharray="2 2">
      <animate attributeName="stroke-dashoffset" values="0;4" dur="1s" repeatCount="indefinite" />
    </path>
    <path d="M80 130L100 115" stroke="#6366f1" stroke-width="1" stroke-dasharray="2 2">
      <animate attributeName="stroke-dashoffset" values="0;4" dur="1s" repeatCount="indefinite" />
    </path>
    <path d="M100 115L120 130" stroke="#6366f1" stroke-width="1" stroke-dasharray="2 2">
      <animate attributeName="stroke-dashoffset" values="0;4" dur="1s" repeatCount="indefinite" />
    </path>
    
    <!-- Data flow animation -->
    <circle cx="70" cy="90" r="2" fill="white">
      <animate attributeName="cx" values="70;100" dur="2s" repeatCount="indefinite" />
      <animate attributeName="cy" values="90;75" dur="2s" repeatCount="indefinite" />
      <animate attributeName="opacity" values="1;0" dur="2s" repeatCount="indefinite" />
    </circle>
    
    <circle cx="130" cy="90" r="2" fill="white">
      <animate attributeName="cx" values="130;100" dur="2s" repeatCount="indefinite" begin="0.5s" />
      <animate attributeName="cy" values="90;75" dur="2s" repeatCount="indefinite" begin="0.5s" />
      <animate attributeName="opacity" values="1;0" dur="2s" repeatCount="indefinite" begin="0.5s" />
    </circle>
    
    <circle cx="100" cy="95" r="2" fill="white">
      <animate attributeName="cy" values="95;115" dur="2s" repeatCount="indefinite" begin="1s" />
      <animate attributeName="opacity" values="1;0" dur="2s" repeatCount="indefinite" begin="1s" />
    </circle>
    
    <!-- Research elements -->
    <circle cx="40" cy="60" r="10" fill="none" stroke="#10b981" stroke-width="1.5" />
    <line x1="47" y1="67" x2="55" y2="75" stroke="#10b981" stroke-width="1.5" />
    
    <!-- Document/research paper -->
    <rect x="150" y="120" width="30" height="40" rx="2" fill="white" stroke="#8b5cf6" stroke-width="1.5" />
    <line x1="155" y1="130" x2="175" y2="130" stroke="#8b5cf6" stroke-width="1" />
    <line x1="155" y1="135" x2="175" y2="135" stroke="#8b5cf6" stroke-width="1" />
    <line x1="155" y1="140" x2="175" y2="140" stroke="#8b5cf6" stroke-width="1" />
    <line x1="155" y1="145" x2="165" y2="145" stroke="#8b5cf6" stroke-width="1" />
    
    <!-- Code snippet -->
    <rect x="30" y="120" width="30" height="40" rx="2" fill="none" stroke="#10b981" stroke-width="1.5" />
    <line x1="35" y1="130" x2="45" y2="130" stroke="#10b981" stroke-width="1" />
    <line x1="35" y1="135" x2="50" y2="135" stroke="#10b981" stroke-width="1" />
    <line x1="35" y1="140" x2="40" y2="140" stroke="#10b981" stroke-width="1" />
    <line x1="42" y1="140" x2="55" y2="140" stroke="#10b981" stroke-width="1" />
    <line x1="35" y1="145" x2="48" y2="145" stroke="#10b981" stroke-width="1" />
    
    <!-- Lab flask -->
    <path d="M160 60L150 80V90C150 95 170 95 170 90V80L160 60Z" stroke="#8b5cf6" stroke-width="1.5" fill="none" />
    <path d="M155 85C155 85 157 82 160 85C163 88 165 85 165 85" stroke="#8b5cf6" stroke-width="1" />
    <line x1="155" y1="70" x2="165" y2="70" stroke="#8b5cf6" stroke-width="1" />
    
    <!-- Animated pulse -->
    <circle cx="100" cy="100" r="30" fill="#6366f1" opacity="0.1">
      <animate attributeName="r" values="30;40;30" dur="3s" repeatCount="indefinite" />
      <animate attributeName="opacity" values="0.1;0.2;0.1" dur="3s" repeatCount="indefinite" />
    </circle>
  </g>
  
  <defs>
    <radialGradient id="paint0_radial" cx="0" cy="0" r="1" gradientUnits="userSpaceOnUse" gradientTransform="translate(100 100) rotate(90) scale(80)">
      <stop offset="0" stop-color="#6366f1" stop-opacity="0.1" />
      <stop offset="1" stop-color="#6366f1" stop-opacity="0" />
    </radialGradient>
  </defs>
</svg> 