<svg xmlns="http://www.w3.org/2000/svg" width="200" height="200" viewBox="0 0 200 200">
  <defs>
    <linearGradient id="gradient" x1="0%" y1="0%" x2="100%" y2="100%">
      <stop offset="0%" stop-color="#6366F1" />
      <stop offset="100%" stop-color="#EC4899" />
    </linearGradient>
    <filter id="shadow" x="-20%" y="-20%" width="140%" height="140%">
      <feGaussianBlur stdDeviation="3" result="blur" />
      <feFlood flood-color="#000" flood-opacity="0.2" />
      <feComposite in2="blur" operator="in" />
      <feComposite in="SourceGraphic" />
    </filter>
  </defs>
  
  <!-- Background Neural Network Pattern -->
  <g opacity="0.1">
    <circle cx="40" cy="40" r="3" fill="#6366F1" />
    <circle cx="80" cy="30" r="3" fill="#6366F1" />
    <circle cx="120" cy="50" r="3" fill="#6366F1" />
    <circle cx="160" cy="40" r="3" fill="#6366F1" />
    <circle cx="30" cy="80" r="3" fill="#6366F1" />
    <circle cx="70" cy="90" r="3" fill="#6366F1" />
    <circle cx="130" cy="100" r="3" fill="#6366F1" />
    <circle cx="170" cy="80" r="3" fill="#6366F1" />
    <circle cx="50" cy="130" r="3" fill="#6366F1" />
    <circle cx="90" cy="150" r="3" fill="#6366F1" />
    <circle cx="140" cy="140" r="3" fill="#6366F1" />
    <circle cx="160" cy="160" r="3" fill="#6366F1" />
    
    <line x1="40" y1="40" x2="80" y2="30" stroke="#6366F1" stroke-width="1" />
    <line x1="80" y1="30" x2="120" y2="50" stroke="#6366F1" stroke-width="1" />
    <line x1="120" y1="50" x2="160" y2="40" stroke="#6366F1" stroke-width="1" />
    <line x1="30" y1="80" x2="70" y2="90" stroke="#6366F1" stroke-width="1" />
    <line x1="70" y1="90" x2="130" y2="100" stroke="#6366F1" stroke-width="1" />
    <line x1="130" y1="100" x2="170" y2="80" stroke="#6366F1" stroke-width="1" />
    <line x1="50" y1="130" x2="90" y2="150" stroke="#6366F1" stroke-width="1" />
    <line x1="90" y1="150" x2="140" y2="140" stroke="#6366F1" stroke-width="1" />
    <line x1="140" y1="140" x2="160" y2="160" stroke="#6366F1" stroke-width="1" />
    
    <line x1="40" y1="40" x2="30" y2="80" stroke="#6366F1" stroke-width="1" />
    <line x1="80" y1="30" x2="70" y2="90" stroke="#6366F1" stroke-width="1" />
    <line x1="120" y1="50" x2="130" y2="100" stroke="#6366F1" stroke-width="1" />
    <line x1="160" y1="40" x2="170" y2="80" stroke="#6366F1" stroke-width="1" />
    <line x1="30" y1="80" x2="50" y2="130" stroke="#6366F1" stroke-width="1" />
    <line x1="70" y1="90" x2="90" y2="150" stroke="#6366F1" stroke-width="1" />
    <line x1="130" y1="100" x2="140" y2="140" stroke="#6366F1" stroke-width="1" />
    <line x1="170" y1="80" x2="160" y2="160" stroke="#6366F1" stroke-width="1" />
  </g>
  
  <!-- Video Camera Icon -->
  <g filter="url(#shadow)" transform="translate(50, 50) scale(0.5)">
    <!-- Camera Body -->
    <rect x="40" y="60" width="120" height="80" rx="10" fill="url(#gradient)" />
    
    <!-- Lens -->
    <circle cx="100" cy="100" r="30" fill="#2D3748" stroke="#fff" stroke-width="4" />
    <circle cx="100" cy="100" r="20" fill="#1A202C" stroke="#fff" stroke-width="2" />
    <circle cx="100" cy="100" r="10" fill="#000" />
    <circle cx="90" cy="90" r="3" fill="#fff" opacity="0.8" />
    
    <!-- Record Light -->
    <circle cx="150" cy="70" r="5" fill="#EF4444" />
    
    <!-- Handle -->
    <path d="M160 80 L190 60 L190 100 L160 120 Z" fill="url(#gradient)" />
    
    <!-- Tripod Mount -->
    <rect x="90" y="140" width="20" height="10" fill="#4B5563" />
    
    <!-- AI Elements -->
    <g opacity="0.7">
      <circle cx="40" cy="60" r="5" fill="#fff" />
      <circle cx="160" cy="60" r="5" fill="#fff" />
      <circle cx="40" cy="140" r="5" fill="#fff" />
      <circle cx="160" cy="140" r="5" fill="#fff" />
      
      <line x1="40" y1="60" x2="160" y2="60" stroke="#fff" stroke-width="1" stroke-dasharray="4" />
      <line x1="160" y1="60" x2="160" y2="140" stroke="#fff" stroke-width="1" stroke-dasharray="4" />
      <line x1="160" y1="140" x2="40" y2="140" stroke="#fff" stroke-width="1" stroke-dasharray="4" />
      <line x1="40" y1="140" x2="40" y2="60" stroke="#fff" stroke-width="1" stroke-dasharray="4" />
    </g>
    
    <!-- Digital Elements -->
    <g transform="translate(20, 80)">
      <rect x="0" y="0" width="30" height="20" rx="2" fill="#1A202C" />
      <line x1="5" y1="5" x2="25" y2="5" stroke="#38B2AC" stroke-width="2" />
      <line x1="5" y1="10" x2="15" y2="10" stroke="#38B2AC" stroke-width="2" />
      <line x1="5" y1="15" x2="20" y2="15" stroke="#38B2AC" stroke-width="2" />
    </g>
  </g>
  
  <!-- AI Data Streams -->
  <g opacity="0.6">
    <path d="M20,100 Q50,70 80,100 T140,100 T200,100" fill="none" stroke="url(#gradient)" stroke-width="2" stroke-dasharray="4" />
    <path d="M20,120 Q50,150 80,120 T140,120 T200,120" fill="none" stroke="url(#gradient)" stroke-width="2" stroke-dasharray="4" />
  </g>
</svg> 